PathFileType	4	(X/Y/Z)	C:\Users\WrightLab\Desktop\Jo\P4V129.trc
DataRate	CameraRate	NumFrames	NumMarkers	Units	OrigDataRate	OrigDataStartFrame	OrigNumFrames
100.00	100.00	       14	19	mm	100.00	1	       456
Frame#	Time	Headset_Front			Headset_Back			Headset_Left			Headset_Right			Left_Shoulder			Right_Shoulder			Sternum			C7			Left Elbow			Right Elbow			Left Wrist			Right Wrist			Left ASIS			Right ASIS			S2			Left Knee			Right Knee			Left Ankle			Right Ankle			
		X1	Y1	Z1	X2	Y2	Z2	X3	Y3	Z3	X4	Y4	Z4	X5	Y5	Z5	X6	Y6	Z6	X7	Y7	Z7	X8	Y8	Z8	X9	Y9	Z9	X10	Y10	Z10	X11	Y11	Z11	X12	Y12	Z12	X13	Y13	Z13	X14	Y14	Z14	X15	Y15	Z15	X16	Y16	Z16	X17	Y17	Z17	X18	Y18	Z18	X19	Y19	Z19	

1	0.000	-190.18839	1093.67432	2303.40723	-361.63116	115.84475	2456.69775							-276.89374	1559.79211	2132.03101	-1.85916	1558.09412	2237.85669	-251.02930	1738.31787	2104.92432	-153.65179	1596.81409	2233.56714				206.45409	935.45483	2174.58081	-411.07809	1442.10620	1567.06689	140.68704	1210.27209	2294.09619	-281.07230	1041.00696	2088.91187							-317.09497	572.58447	2215.62402	127.30390	620.52454	2135.28320				143.43968	111.03232	2158.17896	
2	0.010	-184.16376	1091.94983	2296.56641	-361.20276	117.82687	2456.33813							-270.66406	1557.90625	2124.38794	3.47714	1557.30286	2232.57666	-246.02824	1737.43616	2099.78540	-147.87312	1595.50635	2227.47559				212.88901	934.42572	2171.46729	-408.63071	1449.79614	1560.87000	146.31068	1209.26343	2288.24536	-274.38681	1039.24182	2082.37720	46.05415	1076.05371	2174.04321				-311.81049	570.81805	2211.59668	133.54185	619.27185	2130.00293				143.87033	110.28257	2158.78491	
3	0.020	-176.93501	1091.68237	2292.12183	-360.18781	120.54547	2454.66553							-264.44174	1556.90930	2119.31226	8.53344	1556.08960	2227.64697	-240.96620	1736.19763	2094.29053	-142.54591	1593.98572	2221.97461				219.72954	932.76563	2168.97241	-406.17200	1457.64160	1552.61426	151.81816	1208.67542	2284.89893	-267.52625	1037.74158	2076.49121	53.30333	1074.76648	2171.45825				-306.45566	569.91071	2206.14941	139.95779	617.59729	2124.35571				145.21652	108.84006	2158.84619	
4	0.030	-169.52815	1089.67529	2284.48315	-358.92694	122.53091	2452.90332							-258.67920	1556.06213	2112.62842	14.23647	1555.15881	2221.32104	-235.60660	1734.53235	2089.10938	-137.28592	1592.47766	2216.05396	-444.95825	1440.52136	1854.95154	226.10811	932.96405	2160.54199	-403.94968	1467.11670	1546.59814	158.08583	1207.67651	2279.81909	-260.58969	1035.84424	2070.66187	59.92107	1073.93896	2164.98511				-300.80301	568.97351	2199.23926	146.15508	615.64752	2121.28638				146.67613	107.77904	2158.23169	
5	0.040	-162.48869	1089.20654	2279.35596	-358.17471	126.31940	2451.49780							-251.85150	1555.33752	2107.70264	20.14275	1554.38171	2215.74609	-230.69882	1734.22498	2084.17236	-131.51392	1591.91797	2210.57935	-439.17020	1445.18787	1848.46704	232.51759	930.88910	2158.72632	-401.09061	1475.32776	1539.62708	163.59698	1207.26746	2274.41724	-253.23396	1034.93677	2063.86865	66.77766	1073.58960	2159.94263				-294.87186	567.42944	2192.66553	151.71542	614.40039	2116.62231				147.43083	108.01253	2158.29785	
6	0.050	-155.16170	1088.49097	2272.99365	-357.08774	130.44174	2450.20703							-246.09554	1554.65979	2100.62549	25.89366	1553.47229	2210.96631	-225.33807	1732.76147	2078.79712	-125.64444	1591.03491	2204.90845	-434.53067	1450.02136	1841.58838	239.36746	929.74634	2157.26685	-398.76941	1482.86499	1533.56909	169.86656	1206.81421	2270.35522	-245.56392	1033.65710	2057.48315							-288.25665	566.56573	2184.61743	156.77954	612.47089	2112.16626				149.15427	107.27950	2156.31226	
7	0.060	-148.59204	1088.16138	2266.57056	-355.22372	134.08403	2447.47241							-239.63902	1554.97021	2096.37378	31.44395	1553.37939	2205.22339	-219.70953	1732.65503	2072.96191	-119.50345	1590.98938	2198.16846	-429.01389	1454.09155	1836.38782	245.52840	930.67755	2147.29834	-395.89548	1490.26770	1528.19543	175.76074	1206.81848	2264.78711	-237.75659	1033.26086	2051.11792							-281.94650	566.12299	2176.43042	161.31679	612.12909	2107.77612				149.99350	107.27200	2155.80518	
8	0.070	-141.34077	1088.55957	2259.90112	-353.48962	140.49643	2444.76099							-233.16646	1554.67712	2088.44678	37.85299	1553.04761	2199.92480	-213.59021	1732.09546	2066.18164	-113.67612	1591.45483	2193.44287	-423.54608	1458.39587	1829.53125	252.10422	929.95282	2145.47632	-393.37708	1498.44812	1520.81555	182.00322	1206.22937	2258.78589	-229.42966	1033.00403	2043.18689							-275.76642	565.90186	2167.14355	165.89305	611.67682	2103.57739				150.75471	107.70946	2154.58423	
9	0.080	-134.45923	1089.10730	2253.40186	-351.79807	148.39296	2443.29834							-226.70280	1555.67126	2084.15552	44.29815	1552.98486	2193.58008	-208.23203	1731.96326	2061.40112	-107.33810	1591.44080	2186.91284	-418.59601	1463.16296	1825.51843	258.85278	928.29126	2144.88550	-390.68762	1505.91565	1514.93884	188.72977	1206.97400	2253.65210	-220.89273	1033.48950	2035.91382							-269.07050	565.92712	2156.14526	171.69092	611.39398	2100.46851				151.07236	107.77413	2154.66992	
10	0.090	-127.71384	1089.31934	2246.42236	-349.28687	154.85315	2439.15649							-220.09540	1556.09509	2077.22705	49.97345	1553.63611	2188.47119	-202.86797	1732.26025	2056.48804	-100.78251	1591.92566	2180.87158	-412.81967	1466.82495	1818.73291	264.71756	930.73877	2135.70166	-388.12897	1512.88416	1510.74475	194.47604	1207.45947	2247.84253	-212.41203	1034.39844	2028.90479							-261.92068	565.37738	2143.66357	176.91104	611.28833	2095.20459				151.49440	107.85423	2154.21484	
11	0.100	-121.27206	1090.78369	2240.59399	-345.79657	161.97415	2435.19482							-213.38664	1556.99866	2071.72827	56.10473	1555.47559	2183.14453	-197.20662	1733.13672	2050.82666	-94.94202	1592.88953	2175.63794	-407.75684	1471.42236	1814.71936	271.66840	930.97607	2133.12891	-384.96271	1519.88916	1503.94922	200.33739	1208.58801	2241.37842	-204.03304	1035.45447	2021.22974							-255.19855	566.03705	2128.23706	183.72485	611.40283	2091.32983				152.73328	107.12220	2152.83301	
12	0.110	-115.22895	1090.23499	2232.90186	-342.40027	170.16066	2429.52661							-206.94119	1558.66736	2066.98242	62.60748	1556.20190	2176.58008	-191.46533	1734.01758	2045.81287	-88.47044	1594.27124	2169.72729	-401.99307	1475.13538	1808.14783	277.57388	932.33191	2125.39063	-382.79791	1525.34387	1497.76306	206.71046	1210.05396	2236.65015	-195.42557	1036.30457	2013.91467							-247.17458	565.49756	2115.71753	189.17993	610.84766	2087.08911				152.78477	107.37848	2153.05151	
13	0.120	-109.49440	1091.71753	2226.84790	-337.58395	178.85811	2422.95776							-200.89775	1559.61475	2060.68945	68.79423	1557.96484	2171.89551	-186.04753	1735.29614	2040.28857	-81.96260	1595.30701	2163.64624	-396.12396	1479.22156	1803.22998	284.14566	932.44470	2123.37671	-379.15784	1533.47668	1495.07581	212.96532	1211.66125	2230.04224	-186.93303	1037.07385	2006.74500							-237.87352	564.30048	2099.77026	195.10551	611.11450	2086.34863				153.03722	107.40575	2152.78198	
14	0.130	-103.45418	1092.65601	2221.15845	-332.05435	188.37160	2415.35742							-193.15833	1561.10815	2055.09912	74.88581	1559.94299	2165.49902	-180.38335	1736.52014	2035.55823	-76.00140	1596.55432	2158.14990	-391.42615	1483.36987	1798.05884	290.21695	934.49866	2116.53760	-376.27988	1539.51306	1490.06409	219.24020	1213.08081	2223.18994	-179.28035	1038.18628	1998.70239							-227.07103	561.73718	2083.47974	199.68080	609.30341	2085.47510				153.02594	107.37914	2152.71558	
